<svg width="78" height="234" viewBox="0 0 78 234" fill="none" xmlns="http://www.w3.org/2000/svg">
<path d="M75.0931 2.51187C49.4777 3.23028 54.1978 2.25839 33.4735 22.2118C28.7402 26.769 21.5835 32.3116 19.9616 40.408C17.5682 52.3558 32.219 88.5026 41.8108 75.1992C48.0097 66.6016 46.8157 51.8342 37.3858 47.9286C21.9213 41.5236 9.48779 60.4606 4.68025 76.8241C-0.612594 94.8394 3.83248 114.547 16.3066 126.577C22.0052 132.072 31.1973 129.583 26.1552 117.913C15.7845 93.9098 3.79002 123.028 5.41397 138.975C8.339 167.699 33.0102 205.433 56.0924 199.448C63.3093 197.577 60.9504 193.404 57.9218 190.316C54.8487 187.183 47.1213 175.741 49.1959 180.086C52.8228 187.68 57.4241 190.737 62.5642 195.197C69.194 200.949 54.9734 213.519 50.8538 218.005C48.6912 220.361 45.5489 225.636 44.964 229.477C43.8089 237.062 52.1472 217.244 53.6394 209.795" stroke="#00ADB5" stroke-opacity="0.2" stroke-width="5" stroke-linecap="round" stroke-linejoin="round"/>
</svg>
